<svg width="302" height="204" viewBox="0 0 302 204" fill="none" xmlns="http://www.w3.org/2000/svg">
<mask id="mask0_2087_573" style="mask-type:luminance" maskUnits="userSpaceOnUse" x="77" y="0" width="149" height="149">
<path d="M225.966 0H77V148.966H225.966V0Z" fill="white"/>
</mask>
<g mask="url(#mask0_2087_573)">
<path d="M193.379 32.5859H101.828C93.2576 32.5859 86.3103 39.5333 86.3103 48.1032V119.483C86.3103 128.053 93.2576 135 101.828 135H193.379C201.949 135 208.896 128.053 208.896 119.483V48.1032C208.896 39.5333 201.949 32.5859 193.379 32.5859Z" fill="#B2BBC4" stroke="#192F0D" stroke-width="6.20691"/>
<path d="M216.655 68.2759H167C163.572 68.2759 160.793 71.0548 160.793 74.4828V93.1035C160.793 96.5315 163.572 99.3104 167 99.3104H216.655C220.083 99.3104 222.862 96.5315 222.862 93.1035V74.4828C222.862 71.0548 220.083 68.2759 216.655 68.2759Z" fill="#B2B6B9" stroke="#192F0D" stroke-width="6.20691"/>
<path d="M163.897 45H188.724C193.009 45 196.483 48.4737 196.483 52.7586V54.3104" stroke="#192F0D" stroke-width="6.20691" stroke-linecap="round"/>
<path d="M148.379 45H153.035" stroke="#192F0D" stroke-width="6.20691" stroke-linecap="round"/>
<path d="M98.7241 68.2759V114.828C98.7241 119.113 102.198 122.586 106.483 122.586H117.345" stroke="#192F0D" stroke-width="6.20691" stroke-linecap="round"/>
<path d="M125.103 122.586H131.31" stroke="#192F0D" stroke-width="6.20691" stroke-linecap="round"/>
<path d="M196.483 111.724H207.345" stroke="#192F0D" stroke-width="6.20691" stroke-linecap="round"/>
<path d="M180.966 111.724H187.173" stroke="#192F0D" stroke-width="6.20691" stroke-linecap="round"/>
<path d="M176.31 89.9998C179.738 89.9998 182.517 87.2208 182.517 83.7928C182.517 80.3649 179.738 77.5859 176.31 77.5859C172.882 77.5859 170.104 80.3649 170.104 83.7928C170.104 87.2208 172.882 89.9998 176.31 89.9998Z" fill="#B2BBC3" stroke="#192F0D" stroke-width="6.20691"/>
<path d="M172.684 5.6319C173.954 4.39984 176.23 3.72756 178.504 4.02838C180.788 4.33054 182.1 5.43598 182.477 6.65924L190.556 32.8966H107.174L110.674 26.921C113.847 22.6974 116.154 19.5378 118.227 17.129C120.306 14.7151 121.909 13.354 123.527 12.588C126.727 11.0733 130.996 11.3776 141.642 14.2276C155.038 17.8136 165.559 12.5489 172.684 5.6319Z" fill="#53FAA3" stroke="#192F0D" stroke-width="6.20691"/>
</g>
<path d="M13.796 192L10.0421 159.559H14.0509L17.0169 185.164L27.0967 159.559H30.5957L33.5617 185.164L43.6415 159.559H47.6502L34.8593 192H30.3176L27.6065 168.504L18.3145 192H13.796ZM66.3765 168.828H70.2693L67.0253 192H63.1324L63.5263 188.084C62.6149 189.428 61.4563 190.517 60.0505 191.351C58.6602 192.185 57.0845 192.602 55.3234 192.602C53.6241 192.602 52.0716 192.286 50.6658 191.652C49.2755 191.004 48.0938 190.115 47.1205 188.988C46.1473 187.844 45.4444 186.531 45.0119 185.048C44.5948 183.565 44.5098 181.967 44.757 180.252C44.9887 178.599 45.5139 177.039 46.3327 175.571C47.1669 174.104 48.2096 172.821 49.4609 171.725C50.7276 170.612 52.1257 169.747 53.655 169.129C55.1998 168.496 56.8064 168.179 58.4748 168.179C60.2977 168.179 61.8347 168.612 63.086 169.477C64.3528 170.326 65.3183 171.431 65.9825 172.79L66.3765 168.828ZM55.7637 188.825C57.293 188.825 58.6679 188.455 59.8883 187.713C61.1241 186.956 62.136 185.937 62.9238 184.654C63.7271 183.372 64.2369 181.959 64.4532 180.414C64.6695 178.838 64.5536 177.417 64.1056 176.15C63.6731 174.868 62.947 173.856 61.9274 173.115C60.9233 172.358 59.6643 171.979 58.1504 171.979C56.621 171.979 55.1767 172.358 53.8172 173.115C52.4578 173.872 51.3224 174.891 50.411 176.174C49.4995 177.44 48.9357 178.854 48.7194 180.414C48.5031 181.974 48.6808 183.395 49.2524 184.678C49.8239 185.944 50.6813 186.956 51.8244 187.713C52.983 188.455 54.2961 188.825 55.7637 188.825ZM71.9515 192L76.8176 157.242H80.7105L75.8444 192H71.9515ZM81.4104 192L86.2765 157.242H90.1694L85.3033 192H81.4104ZM100.723 192.602C98.5909 192.602 96.7217 192.054 95.1151 190.957C93.524 189.86 92.3345 188.393 91.5467 186.555C90.7743 184.701 90.5425 182.654 90.8515 180.414C91.0832 178.715 91.6007 177.131 92.404 175.664C93.2228 174.181 94.2423 172.883 95.4627 171.771C96.6831 170.643 98.0348 169.763 99.5178 169.129C101.016 168.496 102.561 168.179 104.152 168.179C105.898 168.179 107.45 168.535 108.81 169.245C110.169 169.94 111.281 170.913 112.147 172.165C113.012 173.416 113.591 174.868 113.884 176.521C114.178 178.174 114.116 179.943 113.699 181.827H94.8139C94.7985 183.141 95.0611 184.315 95.6018 185.35C96.1424 186.369 96.8917 187.18 97.8494 187.783C98.8227 188.385 99.9581 188.694 101.256 188.71C102.646 188.71 103.959 188.354 105.195 187.644C106.431 186.918 107.481 185.929 108.346 184.678L112.17 185.605C110.949 187.659 109.312 189.343 107.257 190.656C105.218 191.954 103.04 192.602 100.723 192.602ZM95.1151 178.769H110.2C110.262 177.471 110.015 176.289 109.459 175.223C108.902 174.142 108.122 173.277 107.118 172.628C106.13 171.979 104.986 171.655 103.689 171.655C102.376 171.655 101.132 171.972 99.9581 172.605C98.7995 173.238 97.7876 174.096 96.9226 175.177C96.0729 176.243 95.4704 177.44 95.1151 178.769ZM130.633 172.721H125.373L122.639 192H118.746L121.48 172.721H117.495L118.028 168.828H122.013L123.01 161.552H126.902L125.906 168.828H131.166L130.633 172.721ZM161.157 159.559L160.601 163.452H149.802L145.817 192H141.924L145.91 163.452H135.158L135.691 159.559H161.157ZM157.556 192L160.8 168.828H164.693L164.299 171.725C165.272 170.643 166.423 169.786 167.752 169.152C169.096 168.504 170.501 168.179 171.969 168.179C172.865 168.179 173.715 168.295 174.518 168.527L172.386 172.42C171.799 172.219 171.197 172.118 170.579 172.118C169.405 172.118 168.3 172.404 167.265 172.976C166.23 173.532 165.357 174.289 164.647 175.247C163.952 176.204 163.519 177.27 163.349 178.444L161.449 192H157.556ZM224.706 185.883L227.903 187.76C226.637 189.227 225.138 190.401 223.408 191.282C221.678 192.162 219.87 192.602 217.986 192.602C215.854 192.602 213.985 192.054 212.378 190.957C210.787 189.86 209.597 188.393 208.81 186.555C208.037 184.701 207.805 182.654 208.114 180.414C208.346 178.715 208.864 177.131 209.667 175.664C210.486 174.181 211.505 172.883 212.726 171.771C213.946 170.643 215.298 169.763 216.781 169.129C218.279 168.496 219.824 168.179 221.415 168.179C223.3 168.179 224.984 168.619 226.467 169.5C227.965 170.381 229.139 171.562 229.989 173.045L226.235 174.922C225.617 174.011 224.837 173.308 223.895 172.814C222.952 172.319 221.948 172.072 220.882 172.072C219.43 172.072 218.071 172.458 216.804 173.231C215.537 173.988 214.471 174.999 213.606 176.266C212.757 177.533 212.224 178.916 212.007 180.414C211.791 181.912 211.938 183.295 212.448 184.562C212.957 185.813 213.737 186.817 214.788 187.574C215.854 188.331 217.097 188.71 218.519 188.71C219.677 188.71 220.797 188.447 221.879 187.922C222.96 187.396 223.902 186.717 224.706 185.883ZM249.916 192H245.443L240.763 181.364L235.781 186.462L235.016 192H231.123L235.989 157.242H239.882L236.615 180.414L247.969 168.828H253.044L243.868 178.213L249.916 192ZM262.746 192.602C260.614 192.602 258.745 192.054 257.138 190.957C255.547 189.86 254.357 188.393 253.57 186.555C252.797 184.701 252.565 182.654 252.874 180.414C253.106 178.715 253.624 177.131 254.427 175.664C255.246 174.181 256.265 172.883 257.486 171.771C258.706 170.643 260.058 169.763 261.541 169.129C263.039 168.496 264.584 168.179 266.175 168.179C267.921 168.179 269.473 168.535 270.833 169.245C272.192 169.94 273.304 170.913 274.169 172.165C275.035 173.416 275.614 174.868 275.907 176.521C276.201 178.174 276.139 179.943 275.722 181.827H256.837C256.821 183.141 257.084 184.315 257.625 185.35C258.165 186.369 258.915 187.18 259.872 187.783C260.846 188.385 261.981 188.694 263.279 188.71C264.669 188.71 265.982 188.354 267.218 187.644C268.454 186.918 269.504 185.929 270.369 184.678L274.193 185.605C272.972 187.659 271.335 189.343 269.28 190.656C267.241 191.954 265.063 192.602 262.746 192.602ZM257.138 178.769H272.223C272.285 177.471 272.038 176.289 271.481 175.223C270.925 174.142 270.145 173.277 269.141 172.628C268.152 171.979 267.009 171.655 265.712 171.655C264.399 171.655 263.155 171.972 261.981 172.605C260.822 173.238 259.811 174.096 258.945 175.177C258.096 176.243 257.493 177.44 257.138 178.769ZM278.213 192L281.457 168.828H285.35L284.956 171.725C285.93 170.643 287.08 169.786 288.409 169.152C289.753 168.504 291.159 168.179 292.626 168.179C293.522 168.179 294.372 168.295 295.175 168.527L293.043 172.42C292.456 172.219 291.854 172.118 291.236 172.118C290.062 172.118 288.957 172.404 287.922 172.976C286.887 173.532 286.015 174.289 285.304 175.247C284.609 176.204 284.176 177.27 284.006 178.444L282.106 192H278.213Z" fill="white"/>
<path d="M182.358 189.565C180.5 188.379 179.056 187.237 178.027 186.138C177.045 185.029 176.467 183.856 176.291 182.617C176.134 181.35 176.377 179.897 177.022 178.256C177.695 176.634 178.742 174.708 180.165 172.478C181.588 170.248 182.893 168.486 184.08 167.192C185.296 165.916 186.503 165.097 187.7 164.734C188.915 164.343 190.223 164.373 191.624 164.824C193.073 165.266 194.726 166.079 196.584 167.264C198.471 168.468 199.906 169.625 200.888 170.734C201.916 171.832 202.495 173.006 202.624 174.255C202.799 175.493 205.552 193.5 200.888 192.138C200.261 193.75 200.218 182.093 198.777 184.351C197.355 186.581 196.035 188.334 194.819 189.61C193.632 190.904 192.43 191.747 191.215 192.138C190.018 192.501 188.696 192.462 187.248 192.02C185.846 191.569 184.216 190.75 182.358 189.565ZM179.755 182.957L187.389 187.826C188.218 188.355 188.807 188.63 189.155 188.652C189.532 188.691 189.858 188.496 190.131 188.068L199.187 173.872L191.553 169.003C190.753 168.492 190.164 168.217 189.787 168.178C189.41 168.138 189.084 168.333 188.811 168.762L179.755 182.957Z" fill="#53FAA3"/>
</svg>
